<mxfile host="app.diagrams.net" modified="2022-03-30T12:37:09.680Z" agent="5.0 (Macintosh; Intel Mac OS X 10_15_7) AppleWebKit/537.36 (KHTML, like Gecko) Chrome/99.0.4844.84 Safari/537.36" etag="sjyO278Gs4BZbyb4OS-D" version="17.2.6" type="github">
  <diagram id="2BcyjJTzBsoS4lFNRHGY" name="第 1 页">
    <mxGraphModel dx="858" dy="532" grid="1" gridSize="10" guides="1" tooltips="1" connect="1" arrows="1" fold="1" page="1" pageScale="1" pageWidth="827" pageHeight="1169" math="0" shadow="0">
      <root>
        <mxCell id="0" />
        <mxCell id="1" parent="0" />
        <mxCell id="3LkXJFcj2zFbpE7zRfdK-3" value="" style="shape=flexArrow;endArrow=classic;html=1;rounded=1;shadow=1;sketch=1;strokeWidth=2;strokeColor=#333333;opacity=70;" parent="1" edge="1">
          <mxGeometry width="50" height="50" relative="1" as="geometry">
            <mxPoint x="50" y="280" as="sourcePoint" />
            <mxPoint x="440" y="280" as="targetPoint" />
          </mxGeometry>
        </mxCell>
        <mxCell id="3LkXJFcj2zFbpE7zRfdK-4" value="kusama" style="text;html=1;strokeColor=none;fillColor=none;align=center;verticalAlign=middle;whiteSpace=wrap;rounded=0;" parent="1" vertex="1">
          <mxGeometry x="190" y="230" width="60" height="30" as="geometry" />
        </mxCell>
        <mxCell id="3LkXJFcj2zFbpE7zRfdK-7" value="" style="shape=flexArrow;endArrow=classic;html=1;rounded=1;shadow=1;sketch=1;strokeWidth=2;strokeColor=#FF3399;opacity=70;" parent="1" edge="1">
          <mxGeometry width="50" height="50" relative="1" as="geometry">
            <mxPoint x="50" y="460" as="sourcePoint" />
            <mxPoint x="440" y="460" as="targetPoint" />
          </mxGeometry>
        </mxCell>
        <mxCell id="3LkXJFcj2zFbpE7zRfdK-8" value="heiko" style="text;html=1;strokeColor=none;fillColor=none;align=center;verticalAlign=middle;whiteSpace=wrap;rounded=0;" parent="1" vertex="1">
          <mxGeometry x="190" y="480" width="60" height="30" as="geometry" />
        </mxCell>
        <mxCell id="3LkXJFcj2zFbpE7zRfdK-9" value="" style="endArrow=classic;startArrow=classic;html=1;rounded=0;" parent="1" edge="1">
          <mxGeometry width="50" height="50" relative="1" as="geometry">
            <mxPoint x="299.55" y="460" as="sourcePoint" />
            <mxPoint x="299.55" y="290" as="targetPoint" />
          </mxGeometry>
        </mxCell>
        <mxCell id="3LkXJFcj2zFbpE7zRfdK-11" value="subquery scanned block height" style="text;html=1;strokeColor=none;fillColor=none;align=center;verticalAlign=middle;whiteSpace=wrap;rounded=0;" parent="1" vertex="1">
          <mxGeometry x="304" y="420" width="106" height="30" as="geometry" />
        </mxCell>
        <mxCell id="3LkXJFcj2zFbpE7zRfdK-12" value="" style="shape=flexArrow;endArrow=classic;html=1;rounded=0;" parent="1" edge="1">
          <mxGeometry width="50" height="50" relative="1" as="geometry">
            <mxPoint x="320" y="520" as="sourcePoint" />
            <mxPoint x="300" y="470" as="targetPoint" />
          </mxGeometry>
        </mxCell>
        <mxCell id="3LkXJFcj2zFbpE7zRfdK-13" value="contribute via heiko" style="text;html=1;strokeColor=none;fillColor=none;align=center;verticalAlign=middle;whiteSpace=wrap;rounded=0;" parent="1" vertex="1">
          <mxGeometry x="300" y="520" width="120" height="30" as="geometry" />
        </mxCell>
        <mxCell id="3LkXJFcj2zFbpE7zRfdK-18" value="" style="curved=1;endArrow=classic;html=1;rounded=0;" parent="1" edge="1">
          <mxGeometry width="50" height="50" relative="1" as="geometry">
            <mxPoint x="450" y="170" as="sourcePoint" />
            <mxPoint x="330" y="270" as="targetPoint" />
            <Array as="points">
              <mxPoint x="410" y="160" />
              <mxPoint x="370" y="170" />
              <mxPoint x="340" y="210" />
            </Array>
          </mxGeometry>
        </mxCell>
        <mxCell id="3LkXJFcj2zFbpE7zRfdK-19" value="contribute block height" style="text;html=1;strokeColor=none;fillColor=none;align=center;verticalAlign=middle;whiteSpace=wrap;rounded=0;" parent="1" vertex="1">
          <mxGeometry x="450" y="170" width="60" height="30" as="geometry" />
        </mxCell>
        <mxCell id="3LkXJFcj2zFbpE7zRfdK-23" value="" style="edgeStyle=orthogonalEdgeStyle;rounded=1;orthogonalLoop=1;jettySize=auto;html=1;" parent="1" source="3LkXJFcj2zFbpE7zRfdK-21" target="3LkXJFcj2zFbpE7zRfdK-22" edge="1">
          <mxGeometry relative="1" as="geometry" />
        </mxCell>
        <mxCell id="3LkXJFcj2zFbpE7zRfdK-21" value="get block height &lt;font color=&quot;#ff3399&quot;&gt;H_para&lt;/font&gt;&amp;nbsp;from subquery" style="rounded=1;whiteSpace=wrap;html=1;gradientColor=none;glass=0;shadow=1;sketch=1;" parent="1" vertex="1">
          <mxGeometry x="600" y="200" width="320" height="60" as="geometry" />
        </mxCell>
        <mxCell id="3LkXJFcj2zFbpE7zRfdK-25" value="" style="edgeStyle=orthogonalEdgeStyle;rounded=1;orthogonalLoop=1;jettySize=auto;html=1;" parent="1" source="3LkXJFcj2zFbpE7zRfdK-22" target="3LkXJFcj2zFbpE7zRfdK-24" edge="1">
          <mxGeometry relative="1" as="geometry" />
        </mxCell>
        <mxCell id="3LkXJFcj2zFbpE7zRfdK-22" value="Query the relaychain block height &lt;font color=&quot;#ff3399&quot;&gt;H_relay&lt;/font&gt; corresponding to the parachain" style="whiteSpace=wrap;html=1;rounded=1;gradientColor=none;glass=0;shadow=1;sketch=1;" parent="1" vertex="1">
          <mxGeometry x="600" y="290" width="320" height="60" as="geometry" />
        </mxCell>
        <mxCell id="3LkXJFcj2zFbpE7zRfdK-28" value="" style="edgeStyle=orthogonalEdgeStyle;rounded=1;orthogonalLoop=1;jettySize=auto;html=1;fontColor=#FF3399;" parent="1" source="3LkXJFcj2zFbpE7zRfdK-24" target="3LkXJFcj2zFbpE7zRfdK-27" edge="1">
          <mxGeometry relative="1" as="geometry" />
        </mxCell>
        <mxCell id="3LkXJFcj2zFbpE7zRfdK-24" value="The actual contribute may occur at&lt;br&gt;&lt;font color=&quot;#ff3399&quot;&gt;[H_relay - offset, H_relay + offset]&lt;/font&gt;&lt;br&gt;&lt;font color=&quot;#333333&quot;&gt;due to delay of subquery and xcm&lt;/font&gt;" style="whiteSpace=wrap;html=1;rounded=1;gradientColor=none;glass=0;shadow=1;sketch=1;" parent="1" vertex="1">
          <mxGeometry x="600" y="370" width="320" height="60" as="geometry" />
        </mxCell>
        <mxCell id="3LkXJFcj2zFbpE7zRfdK-27" value="find `crowdloan.Contributed` and if found&lt;br&gt;return &lt;font color=&quot;#ff3333&quot;&gt;blockHeight&lt;/font&gt; and &lt;font color=&quot;#ff3333&quot;&gt;tx_hash&lt;/font&gt;&amp;nbsp;" style="whiteSpace=wrap;html=1;rounded=1;gradientColor=none;glass=0;shadow=1;sketch=1;" parent="1" vertex="1">
          <mxGeometry x="600" y="450" width="320" height="60" as="geometry" />
        </mxCell>
        <mxCell id="MfH0Oa--9J9utDKAp9Wr-1" value="xcm" style="text;html=1;strokeColor=none;fillColor=none;align=center;verticalAlign=middle;whiteSpace=wrap;rounded=0;" vertex="1" parent="1">
          <mxGeometry x="290" y="290" width="60" height="30" as="geometry" />
        </mxCell>
      </root>
    </mxGraphModel>
  </diagram>
</mxfile>
